<?xml version="1.0" encoding="utf-8"?><svg xmlns="http://www.w3.org/2000/svg" xmlns:xlink="http://www.w3.org/1999/xlink"><symbol viewBox="0 0 1920 521" id="404" xmlns="http://www.w3.org/2000/svg"><path fill-rule="evenodd" clip-rule="evenodd" d="M458.5 211.248c0-40.317 32.683-73 73-73h238v18h-238c-30.376 0-55 24.624-55 55v236c0 40.317-32.683 73-73 73H-1v-18h404.5c30.376 0 55-24.624 55-55v-236zm73-71c-39.212 0-71 31.788-71 71v236c0 31.48-25.52 57-57 57H1v14h402.5c39.212 0 71-31.788 71-71v-236c0-31.48 25.52-57 57-57h236v-14h-236zm929 71c0-40.317-32.68-73-73-73h-238v18h238c30.38 0 55 24.624 55 55v236c0 40.317 32.68 73 73 73H1920v-18h-404.5c-30.38 0-55-24.624-55-55v-236zm-73-71c39.21 0 71 31.788 71 71v236c0 31.48 25.52 57 57 57H1918v14h-402.5c-39.21 0-71-31.788-71-71v-236c0-31.48-25.52-57-57-57h-236v-14h236zm-604-30.5c0-9.389 7.611-17 17-17h75v112h-75c-9.389 0-17-7.611-17-17v-78zm17-15c-8.284 0-15 6.716-15 15v78c0 8.284 6.716 15 15 15h73v-108h-73zm335 15c0-9.389-7.61-17-17-17h-75v112h75c9.39 0 17-7.611 17-17v-78zm-17-15c8.28 0 15 6.716 15 15v78c0 8.284-6.72 15-15 15h-73v-108h73z"/><path fill-rule="evenodd" clip-rule="evenodd" d="M767.5 122.748c0-9.389 7.611-17 17-17v1h1v84h-1v1c-9.389 0-17-7.611-17-17v-52zm16 66.967v-81.934c-7.818.515-14 7.019-14 14.967v52c0 7.948 6.182 14.453 14 14.967zm368-66.967c0-9.389-7.61-17-17-17v1h-1v84h1v1c9.39 0 17-7.611 17-17v-52zm-16 66.967v-81.934c7.82.515 14 7.019 14 14.967v52c0 7.948-6.18 14.453-14 14.967zm-276-79.467a4.5 4.5 0 019 0v77a4.5 4.5 0 01-9 0v-77zm4.5-2.5a2.5 2.5 0 00-2.5 2.5v77a2.5 2.5 0 105 0v-77a2.5 2.5 0 00-2.5-2.5zm195.5 2.5c0-2.485-2.01-4.5-4.5-4.5s-4.5 2.015-4.5 4.5v77c0 2.485 2.01 4.5 4.5 4.5s4.5-2.015 4.5-4.5v-77zm-4.5-2.5a2.5 2.5 0 012.5 2.5v77a2.5 2.5 0 01-5 0v-77a2.5 2.5 0 012.5-2.5zm-209.5 2.5a4.5 4.5 0 019 0v77a4.5 4.5 0 01-9 0v-77zm4.5-2.5a2.5 2.5 0 00-2.5 2.5v77a2.5 2.5 0 105 0v-77a2.5 2.5 0 00-2.5-2.5zm223.5 2.5c0-2.485-2.01-4.5-4.5-4.5s-4.5 2.015-4.5 4.5v77c0 2.485 2.01 4.5 4.5 4.5s4.5-2.015 4.5-4.5v-77zm-4.5-2.5a2.5 2.5 0 012.5 2.5v77a2.5 2.5 0 01-5 0v-77a2.5 2.5 0 012.5-2.5zm-237.5 2.5a4.5 4.5 0 019 0v77a4.5 4.5 0 01-9 0v-77zm4.5-2.5a2.5 2.5 0 00-2.5 2.5v77a2.5 2.5 0 105 0v-77a2.5 2.5 0 00-2.5-2.5zm251.5 2.5c0-2.485-2.01-4.5-4.5-4.5s-4.5 2.015-4.5 4.5v77c0 2.485 2.01 4.5 4.5 4.5s4.5-2.015 4.5-4.5v-77zm-4.5-2.5a2.5 2.5 0 012.5 2.5v77a2.5 2.5 0 01-5 0v-77a2.5 2.5 0 012.5-2.5zm-209.5-21a9 9 0 019-9h7a9 9 0 019 9v124a9 9 0 01-9 9h-7a9 9 0 01-9-9v-124zm9-7a7 7 0 00-7 7v124a7 7 0 007 7h7a7 7 0 007-7v-124a7 7 0 00-7-7h-7zm163 7a9 9 0 00-9-9h-7a9 9 0 00-9 9v124a9 9 0 009 9h7a9 9 0 009-9v-124zm-9-7c3.87 0 7 3.134 7 7v124c0 3.866-3.13 7-7 7h-7c-3.87 0-7-3.134-7-7v-124c0-3.866 3.13-7 7-7h7z"/><path fill-rule="evenodd" clip-rule="evenodd" d="M928.5 102.748a9 9 0 019 9v7a9 9 0 01-9 9h-32v-25h32zm7 9a7 7 0 00-7-7h-30v21h30a7 7 0 007-7v-7zm-7 58a9 9 0 019 9v7a9 9 0 01-9 9h-32v-25h32zm7 9a7 7 0 00-7-7h-30v21h30a7 7 0 007-7v-7zm90.98-175.473c.29-1.08-1.14-1.749-1.79-.834l-16.96 24.144a1 1 0 00.56 1.54l9.79 2.625a2.999 2.999 0 012.12 3.674l-4.46 16.665c-.29 1.07 1.12 1.743 1.77.848l18.15-24.904c.41-.568.13-1.373-.55-1.555l-10.71-2.87a2.999 2.999 0 01-2.12-3.673l4.2-15.66zm-3.42-1.984c1.93-2.744 6.22-.738 5.35 2.501l-4.2 15.66c-.14.534.18 1.082.71 1.225l10.71 2.87c2.03.544 2.89 2.962 1.65 4.664l-18.15 24.904c-1.96 2.686-6.19.667-5.33-2.544l4.47-16.665a.999.999 0 00-.71-1.224l-9.79-2.624c-2.01-.54-2.88-2.918-1.68-4.623l16.97-24.144zM864.381 13.75c-.79-.79-2.085.115-1.614 1.129l12.426 26.764a1 1 0 001.615.286l7.169-7.169a3 3 0 014.242 0l12.2 12.2c.783.783 2.07-.1 1.621-1.113l-12.493-28.17a1 1 0 00-1.621-.301l-7.838 7.838a3 3 0 01-4.243 0l-11.464-11.463zm-3.428 1.971c-1.412-3.042 2.471-5.756 4.842-3.385L877.259 23.8a1 1 0 001.414 0l7.839-7.838c1.489-1.49 4.01-1.02 4.864.905l12.492 28.17c1.348 3.038-2.513 5.688-4.863 3.337l-12.2-12.2a1 1 0 00-1.414 0l-7.169 7.17c-1.474 1.474-3.965 1.032-4.843-.858L860.953 15.72zm133.204 212.871c-.559-.968-2.043-.429-1.851.672l5.076 29.069a1 1 0 001.485.694l8.783-5.069a3.003 3.003 0 014.1 1.098l8.62 14.941c.56.96 2.03.44 1.86-.655l-4.78-30.443a1.001 1.001 0 00-1.49-.711l-9.6 5.542a3.003 3.003 0 01-4.1-1.098l-8.103-14.04zm-3.821 1.016c-.577-3.303 3.877-4.92 5.553-2.016l8.111 14.04a.99.99 0 001.36.366l9.6-5.542c1.83-1.054 4.14.052 4.47 2.133l4.77 30.443c.52 3.284-3.9 4.844-5.56 1.965l-8.63-14.941a.99.99 0 00-1.36-.366l-8.783 5.069c-1.805 1.042-4.097-.029-4.455-2.082l-5.076-29.069zm-65.855.916c.558-.969-.65-1.985-1.508-1.268l-22.637 18.931a1 1 0 00.142 1.633l8.78 5.069a3 3 0 011.098 4.098l-8.626 14.942c-.554.959.632 1.974 1.494 1.278l23.977-19.358a1 1 0 00-.128-1.644l-9.601-5.543a3.001 3.001 0 01-1.098-4.098l8.107-14.04zm-2.791-2.802c2.573-2.151 6.199.897 4.523 3.802l-8.107 14.04a1 1 0 00.366 1.366l9.601 5.543c1.824 1.053 2.023 3.609.384 4.932l-23.976 19.358c-2.587 2.088-6.145-.955-4.483-3.834l8.626-14.942a1 1 0 00-.366-1.366l-8.78-5.069c-1.805-1.042-2.023-3.562-.425-4.9l22.637-18.93z"/></symbol><symbol viewBox="0 0 33 16" id="arrow" xmlns="http://www.w3.org/2000/svg"><path d="M32.707 8.707a1 1 0 000-1.414L26.343.929a1 1 0 10-1.414 1.414L30.586 8l-5.657 5.657a1 1 0 001.414 1.414l6.364-6.364zM0 9h32V7H0v2z"/></symbol><symbol viewBox="0 0 14 8" id="arrow-down" xmlns="http://www.w3.org/2000/svg"><path d="M7.071 5.314l4.95-4.95a1 1 0 111.414 1.414L7.778 7.435a1 1 0 01-1.414 0L.707 1.778A1 1 0 112.121.364l4.95 4.95z"/></symbol><symbol viewBox="0 0 24 24" id="basket" xmlns="http://www.w3.org/2000/svg"><path d="M10 20a2 2 0 110-4 2 2 0 010 4zm7 0a2 2 0 110-4 2 2 0 010 4zM3.962 5.923a.962.962 0 010-1.923h1.151c.902 0 1.682.626 1.878 1.506l1.253 5.642c.196.88.976 1.506 1.878 1.506h7.512l1.442-5.77H9.731a.962.962 0 010-1.922h9.345a1.923 1.923 0 011.866 2.39L19.5 13.12a1.923 1.923 0 01-1.866 1.457h-7.512a3.846 3.846 0 01-3.755-3.012L5.113 5.923H3.962z"/></symbol><symbol viewBox="0 0 24 24" id="burger" xmlns="http://www.w3.org/2000/svg"><path d="M6 7h5a1 1 0 110 2H6a1 1 0 010-2zm7 8h5a1 1 0 010 2h-5a1 1 0 010-2zm-7-4h12a1 1 0 010 2H6a1 1 0 010-2z"/></symbol><symbol viewBox="0 0 14 10" id="check" xmlns="http://www.w3.org/2000/svg"><path d="M1.667 5l4 4 6.666-8"/></symbol><symbol viewBox="0 0 24 24" id="close" xmlns="http://www.w3.org/2000/svg"><path d="M13.314 11.9l3.535-3.536a1 1 0 10-1.414-1.414l-3.536 3.535L8.364 6.95A1 1 0 106.95 8.364l3.535 3.535-3.535 3.536a1 1 0 101.414 1.414l3.535-3.535 3.536 3.535a1 1 0 101.414-1.414l-3.535-3.536z"/></symbol><symbol viewBox="0 0 20 20" id="contacts" xmlns="http://www.w3.org/2000/svg"><path d="M10 20C4.477 20 0 15.523 0 10S4.477 0 10 0s10 4.477 10 10-4.477 10-10 10zm0-2a8 8 0 100-16.001A8 8 0 0010 18zm0-14a4 4 0 014 4v2a4 4 0 11-8 0V8a4 4 0 014-4zm0 2a2 2 0 00-2 2v2a2 2 0 004 0V8a2 2 0 00-2-2zM5.91 16.876a8.032 8.032 0 01-1.58-1.232 5.57 5.57 0 012.204-1.574 1 1 0 11.733 1.86c-.532.21-.993.538-1.358.946h.001zm8.144.022a3.652 3.652 0 00-1.41-.964 1 1 0 11.712-1.868 5.65 5.65 0 012.284 1.607 8.035 8.035 0 01-1.586 1.225z"/></symbol><symbol viewBox="0 0 20 20" id="data" xmlns="http://www.w3.org/2000/svg"><path d="M10 20C4.477 20 0 15.523 0 10S4.477 0 10 0s10 4.477 10 10-4.477 10-10 10zm0-2a8 8 0 100-16.001A8 8 0 0010 18zm0-14a4 4 0 014 4v2a4 4 0 11-8 0V8a4 4 0 014-4zm0 2a2 2 0 00-2 2v2a2 2 0 004 0V8a2 2 0 00-2-2zM5.91 16.876a8.032 8.032 0 01-1.58-1.232 5.57 5.57 0 012.204-1.574 1 1 0 11.733 1.86c-.532.21-.993.538-1.358.946h.001zm8.144.022a3.652 3.652 0 00-1.41-.964 1 1 0 11.712-1.868 5.65 5.65 0 012.284 1.607 8.035 8.035 0 01-1.586 1.225z"/></symbol><symbol viewBox="0 0 20 12" id="eye" xmlns="http://www.w3.org/2000/svg"><path d="M18 6c0-1.81-3.76-3.985-8.007-4C5.775 1.985 2 4.178 2 6c0 1.825 3.754 4.006 7.997 4C14.252 9.994 18 7.82 18 6zm-8 6c-5.042.007-10-2.686-10-6S4.984-.017 10 0c5.016.017 10 2.686 10 6s-4.958 5.993-10 6zm0-2a4 4 0 110-8 4 4 0 010 8zm0-2a2 2 0 100-4 2 2 0 000 4z"/></symbol><symbol viewBox="0 0 24 24" id="facebook" xmlns="http://www.w3.org/2000/svg"><path d="M10.695 8.937v1.377H9.687v1.683h1.008V17h2.072v-5.003h1.39s.131-.807.194-1.69h-1.576v-1.15c0-.173.226-.404.45-.404h1.128V7h-1.535c-2.174 0-2.123 1.685-2.123 1.937z"/><path d="M6 4a2 2 0 00-2 2v12a2 2 0 002 2h12a2 2 0 002-2V6a2 2 0 00-2-2H6zm0-2h12a4 4 0 014 4v12a4 4 0 01-4 4H6a4 4 0 01-4-4V6a4 4 0 014-4z"/></symbol><symbol viewBox="0 0 10 20" id="facebook-solo" xmlns="http://www.w3.org/2000/svg"><path d="M2.046 3.865v2.748H.032v3.36h2.014v9.986H6.18V9.974h2.775s.26-1.611.386-3.373H6.197V4.303c0-.343.45-.805.896-.805h2.254V0H6.283c-4.34 0-4.237 3.363-4.237 3.865z"/></symbol><symbol viewBox="0 0 24 24" id="filter" xmlns="http://www.w3.org/2000/svg"><path d="M4.08 4l6.482 8.101a2 2 0 01.438 1.25V20l2-1.5v-5.15a2 2 0 01.438-1.249L19.92 4H4.08zm0-2h15.84a2 2 0 011.56 3.25L15 13.35v5.15a2 2 0 01-.8 1.6l-2 1.5A1.999 1.999 0 019 20v-6.65l-6.481-8.1A2 2 0 014.079 2z"/></symbol><symbol viewBox="0 0 21 20" id="google" xmlns="http://www.w3.org/2000/svg"><path d="M5.376 8.068A5.944 5.944 0 005.056 10a5.915 5.915 0 001.776 4.24 5.945 5.945 0 007.17.891h.001a5.96 5.96 0 002.564-3.043H11.22V8.132h9.605a9.998 9.998 0 01-3.564 9.666A9.958 9.958 0 0111.001 20 9.997 9.997 0 012.117 5.401 9.998 9.998 0 0111 0c2.426 0 4.651.864 6.383 2.302l-3.24 2.652a5.948 5.948 0 00-8.767 3.114z"/></symbol><symbol viewBox="0 0 16 20" id="history" xmlns="http://www.w3.org/2000/svg"><path d="M3 0h10a3 3 0 013 3v14a3 3 0 01-3 3H3a3 3 0 01-3-3V3a3 3 0 013-3zm0 2a1 1 0 00-1 1v14a1 1 0 001 1h10a1 1 0 001-1V3a1 1 0 00-1-1H3zm2 13h2a1 1 0 010 2H5a1 1 0 010-2zm6-12a1 1 0 110 2 1 1 0 010-2zm0 3a1 1 0 110 2 1 1 0 010-2zm-6 6h6a1 1 0 010 2H5a1 1 0 010-2zm0-3h6a1 1 0 110 2H5a1 1 0 010-2zm.5-6h2A1.5 1.5 0 019 4.5v2A1.5 1.5 0 017.5 8h-2A1.5 1.5 0 014 6.5v-2A1.5 1.5 0 015.5 3z"/></symbol><symbol viewBox="0 0 24 24" id="instagram" xmlns="http://www.w3.org/2000/svg"><path d="M16.017 2h-8.07A5.954 5.954 0 002 7.948v8.07a5.954 5.954 0 005.948 5.947h8.07a5.954 5.954 0 005.947-5.948v-8.07A5.954 5.954 0 0016.017 2zm3.94 14.017a3.94 3.94 0 01-3.94 3.94h-8.07a3.94 3.94 0 01-3.939-3.94v-8.07a3.94 3.94 0 013.94-3.939h8.07a3.94 3.94 0 013.939 3.94v8.07-.001z"/><path d="M11.982 6.82a5.17 5.17 0 00-5.162 5.162 5.17 5.17 0 005.163 5.164 5.17 5.17 0 005.164-5.164 5.17 5.17 0 00-5.165-5.162zm0 8.318a3.155 3.155 0 110-6.31 3.155 3.155 0 010 6.31zm5.174-7.043a1.237 1.237 0 100-2.474 1.237 1.237 0 000 2.474z"/></symbol><symbol viewBox="0 0 20 20" id="mail" xmlns="http://www.w3.org/2000/svg"><path d="M2.328 6.868l7.017 6.253a1 1 0 001.33 0l7.009-6.246-7.137-4.665a1 1 0 00-1.094 0L2.328 6.868zM18 7.082v2.19l-5.994 5.342a3 3 0 01-3.992 0L2 9.254V7.083 18h16V7.082zM.906 5.408L8.359.536a3 3 0 013.282 0l7.453 4.872A2 2 0 0120 7.082V18a2 2 0 01-2 2H2a2 2 0 01-2-2V7.082a2 2 0 01.906-1.674z"/></symbol><symbol viewBox="0 0 14 20" id="pass" xmlns="http://www.w3.org/2000/svg"><path d="M2 12v6h10v-6H2zm8-7a3 3 0 10-6 0v5h8a2 2 0 012 2v6a2 2 0 01-2 2H2a2 2 0 01-2-2v-6a2 2 0 012-2V5a5 5 0 1110 0 1 1 0 01-2 0zM7 17a2 2 0 110-4 2 2 0 010 4z"/></symbol><symbol viewBox="0 0 16 17" id="star-full" xmlns="http://www.w3.org/2000/svg"><path d="M10.807 5.233L8.157 1l-2.65 4.233L1 6.676l2.87 4.058-.136 5.125 4.423-1.725 4.424 1.725-.136-5.125 2.87-4.058-4.508-1.443z"/></symbol><symbol viewBox="0 0 24 24" id="trash" xmlns="http://www.w3.org/2000/svg"><path d="M18.844 7l-.726 13.11A1.993 1.993 0 0116.126 22H7.93a1.993 1.993 0 01-1.993-1.89L5.211 7h-.167a.996.996 0 01-.997-1V3a1.001 1.001 0 01.997-1h13.967a.997.997 0 01.998 1v3a1.001 1.001 0 01-.998 1h-.167zm-1.998 0H7.21l.72 13h8.197l.72-13zM6.042 4v1h11.971V4H6.043zm3.99 5a.996.996 0 01.998 1v7a1.001 1.001 0 01-.997 1 .997.997 0 01-.998-1v-7a1.001 1.001 0 01.998-1zm3.99 0a.996.996 0 01.998 1v7a1.001 1.001 0 01-.997 1 .997.997 0 01-.998-1v-7a1.001 1.001 0 01.998-1z"/></symbol><symbol viewBox="0 0 24 24" id="user" xmlns="http://www.w3.org/2000/svg"><path d="M8.534 12.07a1 1 0 11.733 1.86A3.58 3.58 0 007 17.26V19a1 1 0 001 1h8a1 1 0 001-1v-1.647a3.658 3.658 0 00-2.356-3.419 1 1 0 11.712-1.868A5.658 5.658 0 0119 17.353V19a3 3 0 01-3 3H8a3 3 0 01-3-3v-1.74a5.58 5.58 0 013.534-5.19zM12 2a4 4 0 014 4v2a4 4 0 11-8 0V6a4 4 0 014-4zm0 2a2 2 0 00-2 2v2a2 2 0 104 0V6a2 2 0 00-2-2z"/></symbol></svg>